<?xml version="1.0" encoding="UTF-8"?>
<svg version="1.1" xmlns="http://www.w3.org/2000/svg" width="512" height="512">
<path d="M0 0 C1.55867634 1.33455294 3.10138712 2.68805202 4.625 4.0625 C5.66914062 4.96742188 5.66914062 4.96742188 6.734375 5.890625 C18.27846874 16.53982775 26.70353401 33.16417004 27.83007812 48.93310547 C27.92874827 52.08299884 27.94705535 55.22364397 27.9375 58.375 C27.95361328 59.42623047 27.96972656 60.47746094 27.98632812 61.56054688 C27.99283893 72.15362875 25.84663053 81.78613217 20.9375 91.1875 C20.41748413 92.20251587 20.41748413 92.20251587 19.88696289 93.23803711 C16.79124167 99.09358018 13.09856833 104.17067122 8.625 109.0625 C8.07328125 109.69414062 7.5215625 110.32578125 6.953125 110.9765625 C-4.20182968 123.03453732 -21.1770257 130.48157229 -37.375 132.0625 C-40.85552584 132.17689726 -44.33059629 132.15758801 -47.8125 132.125 C-48.73482422 132.12048828 -49.65714844 132.11597656 -50.60742188 132.11132812 C-52.86335048 132.09963938 -55.11913967 132.08325455 -57.375 132.0625 C-57.45984807 132.63896397 -57.54469614 133.21542793 -57.63211536 133.8093605 C-59.70423362 147.88460127 -61.78303699 161.95884134 -63.86913776 176.03201675 C-64.87783235 182.83792764 -65.88432373 189.64415031 -66.88549805 196.45117188 C-67.85262652 203.02667036 -68.82606738 209.60121474 -69.80327415 216.1752243 C-70.17411426 218.6769731 -70.54287807 221.17903063 -70.90947914 223.68140411 C-71.42536428 227.20023934 -71.94878344 230.71788028 -72.47387695 234.23535156 C-72.69614204 235.76961288 -72.69614204 235.76961288 -72.92289734 237.33486938 C-75.05977624 251.50249493 -77.49504545 263.5872891 -89.4453125 272.62890625 C-97.47749511 278.27866182 -104.11491596 279.36097567 -113.75434875 279.33665466 C-114.78641282 279.34189134 -115.81847688 279.34712802 -116.88181561 279.35252339 C-120.33311508 279.36750094 -123.78426599 279.36822805 -127.2355957 279.36889648 C-129.71298472 279.37651941 -132.19037136 279.38494713 -134.66775513 279.39411926 C-141.39301502 279.41605656 -148.11821534 279.42488408 -154.84350228 279.42994571 C-159.04627401 279.43320808 -163.24903664 279.43973374 -167.45180321 279.4469471 C-179.09890223 279.46650487 -190.74599282 279.4829144 -202.39310932 279.48582363 C-203.50992559 279.48610499 -203.50992559 279.48610499 -204.64930381 279.48639202 C-206.15851796 279.48675826 -207.66773211 279.48712196 -209.17694626 279.48748314 C-209.92607108 279.48766595 -210.67519591 279.48784876 -211.44702148 279.48803711 C-212.19706541 279.48821766 -212.94710933 279.48839821 -213.71988185 279.48858423 C-225.87306372 279.49212585 -238.0260684 279.51915112 -250.17918883 279.556535 C-262.67062528 279.59465073 -275.16197386 279.61398134 -287.65346974 279.61428314 C-294.66143112 279.61486691 -301.66918099 279.62330688 -308.67708778 279.65228081 C-315.26895744 279.67941046 -321.86048184 279.68067185 -328.45241165 279.66462517 C-330.86867498 279.66280996 -333.28496233 279.66950773 -335.70117378 279.68544388 C-339.0061766 279.7059094 -342.30971537 279.6953482 -345.61470032 279.67723083 C-346.56520698 279.6904308 -347.51571365 279.70363077 -348.49502355 279.71723074 C-357.25625907 279.60793526 -364.16574982 276.58527331 -370.3125 270.3125 C-376.83620655 262.93926901 -377.73379107 251.24493704 -379.63720703 241.89160156 C-379.95082348 240.37121534 -380.26492375 238.85092885 -380.57946777 237.33073425 C-381.42721755 233.22668957 -382.26822724 229.1212902 -383.1079812 225.01560307 C-383.98975978 220.71033722 -384.87777633 216.40635835 -385.7651062 212.10223389 C-387.44340183 203.95663723 -389.11608898 195.80989953 -390.7867583 187.6627357 C-392.68573126 178.40367236 -394.59112453 169.145934 -396.49698853 159.88828707 C-399.45926954 145.49830298 -402.41807549 131.10760793 -405.37158203 116.71582031 C-405.51961147 115.99469496 -405.66764091 115.2735696 -405.8201561 114.53059196 C-406.23360951 112.51629378 -406.64688409 110.50195901 -407.06008911 108.48760986 C-407.29124987 107.3608849 -407.52241062 106.23415993 -407.76057625 105.07329178 C-407.96333609 104.07973049 -408.16609592 103.0861692 -408.375 102.0625 C-408.56293058 101.15436932 -408.75086117 100.24623863 -408.94448662 99.31058884 C-410.28811347 92.29433187 -409.93041219 85.34120664 -406.375 79.0625 C-401.50017949 72.02109259 -395.75203938 67.87882367 -387.375 66.0625 C-386.00163535 65.9799057 -384.62486258 65.94462069 -383.24902344 65.94897461 C-382.44849548 65.94905014 -381.64796753 65.94912567 -380.82318115 65.94920349 C-379.54172211 65.95694542 -379.54172211 65.95694542 -378.234375 65.96484375 C-377.35219299 65.9662587 -376.47001099 65.96767365 -375.56109619 65.96913147 C-372.74902935 65.97471999 -369.9370427 65.98727039 -367.125 66 C-365.21614698 66.00501648 -363.30729272 66.00957913 -361.3984375 66.01367188 C-356.72392753 66.02468566 -352.04947735 66.04194242 -347.375 66.0625 C-347.3120575 65.44127258 -347.24911499 64.82004517 -347.18426514 64.17999268 C-347.09864319 63.3668158 -347.01302124 62.55363892 -346.92480469 61.71582031 C-346.84123718 60.9089679 -346.75766968 60.10211548 -346.67156982 59.27081299 C-345.63588808 51.5589379 -340.47481392 46.52826108 -334.625 41.875 C-327.82509206 38.08274365 -320.49210409 37.75921222 -312.84375 37.796875 C-311.96779175 37.79496155 -311.0918335 37.7930481 -310.18933105 37.79107666 C-308.35066437 37.78972512 -306.5119878 37.79334887 -304.67333984 37.80175781 C-301.88226592 37.81247211 -299.09183551 37.80182722 -296.30078125 37.7890625 C-294.50260277 37.79038428 -292.70442468 37.79294705 -290.90625 37.796875 C-289.67304016 37.79080231 -289.67304016 37.79080231 -288.41491699 37.78460693 C-278.78776044 37.86132418 -270.72398458 39.55417418 -263.375 46.0625 C-259.8545233 50.20782321 -256.95023225 54.47927008 -255.0874176 59.60635376 C-253.34708243 63.96051426 -251.34555744 67.42173631 -247.375 70.0625 C-238.75076268 72.6235185 -229.32226994 71.86876442 -220.41360164 71.68394423 C-216.82214031 71.62425058 -213.23111031 71.64432343 -209.63929749 71.65567017 C-202.84927811 71.66513511 -196.06186097 71.60363061 -189.27247387 71.51614916 C-181.53845213 71.41998668 -173.8048925 71.40365762 -166.07035434 71.3937881 C-150.17076676 71.37172382 -134.27354753 71.25020584 -118.375 71.0625 C-118.39071045 70.36801758 -118.4064209 69.67353516 -118.42260742 68.95800781 C-118.48583134 65.74292491 -118.52426391 62.52797348 -118.5625 59.3125 C-118.60020508 57.67474609 -118.60020508 57.67474609 -118.63867188 56.00390625 C-118.73464196 45.19127689 -116.66012963 35.4624386 -111.625 25.875 C-111.1000293 24.8550293 -111.1000293 24.8550293 -110.56445312 23.81445312 C-107.70949203 18.40912896 -104.48613503 13.60397656 -100.375 9.0625 C-99.80652344 8.4025 -99.23804688 7.7425 -98.65234375 7.0625 C-73.41365187 -20.37319053 -28.96679927 -22.44155378 0 0 Z " fill="#DDE0EB" transform="translate(451.375,153.9375)"/>
<path d="M0 0 C1.55867634 1.33455294 3.10138712 2.68805202 4.625 4.0625 C5.66914062 4.96742188 5.66914062 4.96742188 6.734375 5.890625 C18.27846874 16.53982775 26.70353401 33.16417004 27.83007812 48.93310547 C27.92874827 52.08299884 27.94705535 55.22364397 27.9375 58.375 C27.95361328 59.42623047 27.96972656 60.47746094 27.98632812 61.56054688 C27.99283893 72.15362875 25.84663053 81.78613217 20.9375 91.1875 C20.41748413 92.20251587 20.41748413 92.20251587 19.88696289 93.23803711 C16.79124167 99.09358018 13.09856833 104.17067122 8.625 109.0625 C8.07328125 109.69414062 7.5215625 110.32578125 6.953125 110.9765625 C-4.20182968 123.03453732 -21.1770257 130.48157229 -37.375 132.0625 C-40.85552584 132.17689726 -44.33059629 132.15758801 -47.8125 132.125 C-48.73482422 132.12048828 -49.65714844 132.11597656 -50.60742188 132.11132812 C-52.86335048 132.09963938 -55.11913967 132.08325455 -57.375 132.0625 C-57.45984807 132.63896397 -57.54469614 133.21542793 -57.63211536 133.8093605 C-59.70423362 147.88460127 -61.78303699 161.95884134 -63.86913776 176.03201675 C-64.87783235 182.83792764 -65.88432373 189.64415031 -66.88549805 196.45117188 C-67.85262652 203.02667036 -68.82606738 209.60121474 -69.80327415 216.1752243 C-70.17411426 218.6769731 -70.54287807 221.17903063 -70.90947914 223.68140411 C-71.42536428 227.20023934 -71.94878344 230.71788028 -72.47387695 234.23535156 C-72.69614204 235.76961288 -72.69614204 235.76961288 -72.92289734 237.33486938 C-75.05977624 251.50249493 -77.49504545 263.5872891 -89.4453125 272.62890625 C-97.47749511 278.27866182 -104.11491596 279.36097567 -113.75434875 279.33665466 C-114.78641282 279.34189134 -115.81847688 279.34712802 -116.88181561 279.35252339 C-120.33311508 279.36750094 -123.78426599 279.36822805 -127.2355957 279.36889648 C-129.71298472 279.37651941 -132.19037136 279.38494713 -134.66775513 279.39411926 C-141.39301502 279.41605656 -148.11821534 279.42488408 -154.84350228 279.42994571 C-159.04627401 279.43320808 -163.24903664 279.43973374 -167.45180321 279.4469471 C-179.09890223 279.46650487 -190.74599282 279.4829144 -202.39310932 279.48582363 C-203.50992559 279.48610499 -203.50992559 279.48610499 -204.64930381 279.48639202 C-206.15851796 279.48675826 -207.66773211 279.48712196 -209.17694626 279.48748314 C-209.92607108 279.48766595 -210.67519591 279.48784876 -211.44702148 279.48803711 C-212.19706541 279.48821766 -212.94710933 279.48839821 -213.71988185 279.48858423 C-225.87306372 279.49212585 -238.0260684 279.51915112 -250.17918883 279.556535 C-262.67062528 279.59465073 -275.16197386 279.61398134 -287.65346974 279.61428314 C-294.66143112 279.61486691 -301.66918099 279.62330688 -308.67708778 279.65228081 C-315.26895744 279.67941046 -321.86048184 279.68067185 -328.45241165 279.66462517 C-330.86867498 279.66280996 -333.28496233 279.66950773 -335.70117378 279.68544388 C-339.0061766 279.7059094 -342.30971537 279.6953482 -345.61470032 279.67723083 C-346.56520698 279.6904308 -347.51571365 279.70363077 -348.49502355 279.71723074 C-357.25625907 279.60793526 -364.16574982 276.58527331 -370.3125 270.3125 C-376.83620655 262.93926901 -377.73379107 251.24493704 -379.63720703 241.89160156 C-379.95082348 240.37121534 -380.26492375 238.85092885 -380.57946777 237.33073425 C-381.42721755 233.22668957 -382.26822724 229.1212902 -383.1079812 225.01560307 C-383.98975978 220.71033722 -384.87777633 216.40635835 -385.7651062 212.10223389 C-387.44340183 203.95663723 -389.11608898 195.80989953 -390.7867583 187.6627357 C-392.68573126 178.40367236 -394.59112453 169.145934 -396.49698853 159.88828707 C-399.45926954 145.49830298 -402.41807549 131.10760793 -405.37158203 116.71582031 C-405.51961147 115.99469496 -405.66764091 115.2735696 -405.8201561 114.53059196 C-406.23360951 112.51629378 -406.64688409 110.50195901 -407.06008911 108.48760986 C-407.29124987 107.3608849 -407.52241062 106.23415993 -407.76057625 105.07329178 C-407.96333609 104.07973049 -408.16609592 103.0861692 -408.375 102.0625 C-408.56293058 101.15436932 -408.75086117 100.24623863 -408.94448662 99.31058884 C-410.28811347 92.29433187 -409.93041219 85.34120664 -406.375 79.0625 C-401.50017949 72.02109259 -395.75203938 67.87882367 -387.375 66.0625 C-386.00163535 65.9799057 -384.62486258 65.94462069 -383.24902344 65.94897461 C-382.44849548 65.94905014 -381.64796753 65.94912567 -380.82318115 65.94920349 C-379.54172211 65.95694542 -379.54172211 65.95694542 -378.234375 65.96484375 C-377.35219299 65.9662587 -376.47001099 65.96767365 -375.56109619 65.96913147 C-372.74902935 65.97471999 -369.9370427 65.98727039 -367.125 66 C-365.21614698 66.00501648 -363.30729272 66.00957913 -361.3984375 66.01367188 C-356.72392753 66.02468566 -352.04947735 66.04194242 -347.375 66.0625 C-347.3120575 65.44127258 -347.24911499 64.82004517 -347.18426514 64.17999268 C-347.09864319 63.3668158 -347.01302124 62.55363892 -346.92480469 61.71582031 C-346.84123718 60.9089679 -346.75766968 60.10211548 -346.67156982 59.27081299 C-345.63588808 51.5589379 -340.47481392 46.52826108 -334.625 41.875 C-327.82509206 38.08274365 -320.49210409 37.75921222 -312.84375 37.796875 C-311.96779175 37.79496155 -311.0918335 37.7930481 -310.18933105 37.79107666 C-308.35066437 37.78972512 -306.5119878 37.79334887 -304.67333984 37.80175781 C-301.88226592 37.81247211 -299.09183551 37.80182722 -296.30078125 37.7890625 C-294.50260277 37.79038428 -292.70442468 37.79294705 -290.90625 37.796875 C-289.67304016 37.79080231 -289.67304016 37.79080231 -288.41491699 37.78460693 C-278.78776044 37.86132418 -270.72398458 39.55417418 -263.375 46.0625 C-259.8545233 50.20782321 -256.95023225 54.47927008 -255.0874176 59.60635376 C-253.34708243 63.96051426 -251.34555744 67.42173631 -247.375 70.0625 C-238.75076268 72.6235185 -229.32226994 71.86876442 -220.41360164 71.68394423 C-216.82214031 71.62425058 -213.23111031 71.64432343 -209.63929749 71.65567017 C-202.84927811 71.66513511 -196.06186097 71.60363061 -189.27247387 71.51614916 C-181.53845213 71.41998668 -173.8048925 71.40365762 -166.07035434 71.3937881 C-150.17076676 71.37172382 -134.27354753 71.25020584 -118.375 71.0625 C-118.39071045 70.36801758 -118.4064209 69.67353516 -118.42260742 68.95800781 C-118.48583134 65.74292491 -118.52426391 62.52797348 -118.5625 59.3125 C-118.60020508 57.67474609 -118.60020508 57.67474609 -118.63867188 56.00390625 C-118.73464196 45.19127689 -116.66012963 35.4624386 -111.625 25.875 C-111.1000293 24.8550293 -111.1000293 24.8550293 -110.56445312 23.81445312 C-107.70949203 18.40912896 -104.48613503 13.60397656 -100.375 9.0625 C-99.80652344 8.4025 -99.23804688 7.7425 -98.65234375 7.0625 C-73.41365187 -20.37319053 -28.96679927 -22.44155378 0 0 Z M-400.9375 82.125 C-405.63546816 91.9511727 -401.48557134 104.98869979 -399.25 115.0625 C-398.92703252 116.56546513 -398.60544243 118.06872682 -398.28515625 119.57226562 C-397.6345479 122.6198136 -396.97767689 125.6658981 -396.31542969 128.7109375 C-394.95429563 134.98492017 -393.66665682 141.27391623 -392.375 147.5625 C-391.88575028 149.92715238 -391.39616253 152.29173485 -390.90625 154.65625 C-389.37334461 162.0652927 -387.84753716 169.4757877 -386.32275391 176.88650513 C-385.28854596 181.91254993 -384.25361671 186.93844627 -383.21875 191.96435547 C-382.67684988 194.59614351 -382.13521882 197.22798642 -381.59375 199.85986328 C-380.37361915 205.78814227 -379.14874917 211.71535957 -377.9140625 217.640625 C-376.94209279 222.30658648 -375.98665161 226.97545875 -375.04559326 231.64772034 C-374.43708907 234.65830513 -373.81918657 237.66691905 -373.19970703 240.67526245 C-372.90401249 242.12164943 -372.61222994 243.56884268 -372.32470703 245.01687622 C-370.03517319 257.79414675 -370.03517319 257.79414675 -363 268.375 C-356.53598416 272.53043875 -352.04208663 273.49828182 -344.48881531 273.44345093 C-343.49773563 273.4481309 -342.50665595 273.45281087 -341.48554355 273.45763266 C-338.16690239 273.46959184 -334.84867347 273.46012149 -331.5300293 273.45068359 C-329.14968627 273.45474895 -326.76934513 273.46009063 -324.38900757 273.46661377 C-318.59549296 273.47887816 -312.80210916 273.4770758 -307.00859054 273.46837585 C-302.2977025 273.46159524 -297.58684711 273.46068421 -292.87595558 273.4639473 C-292.20495425 273.464407 -291.53395291 273.46486669 -290.8426182 273.46534032 C-289.47936798 273.46629953 -288.11611776 273.46727217 -286.75286756 273.4682581 C-273.97228767 273.47681065 -261.19177236 273.46698102 -248.41120306 273.450857 C-237.455825 273.43746312 -226.50054234 273.43977447 -215.54516602 273.45361328 C-202.81435556 273.46968736 -190.08360174 273.47597702 -177.35278255 273.46677649 C-175.99368561 273.46582088 -174.63458867 273.46487777 -173.27549171 273.4639473 C-172.60684925 273.46348447 -171.9382068 273.46302164 -171.24930244 273.46254479 C-166.54811715 273.45995969 -161.8469679 273.46431572 -157.14578819 273.47138596 C-150.81004562 273.48006387 -144.47448281 273.47401833 -138.13875961 273.45670319 C-135.81561773 273.45274229 -133.49246068 273.45386557 -131.16932487 273.46049118 C-127.9933921 273.46871251 -124.8180321 273.45837733 -121.64213562 273.44345093 C-120.72694348 273.45014309 -119.81175133 273.45683526 -118.86882609 273.46373022 C-112.63587545 273.40707544 -105.65041153 272.91259107 -100.74713725 268.64601934 C-96.4888908 263.73177653 -95.95175929 259.33693949 -96.375 253.0625 C-96.90249653 249.40660661 -97.63533257 245.80324671 -98.38671875 242.1875 C-98.59682083 241.1459375 -98.80692291 240.104375 -99.02339172 239.03125 C-99.69586231 235.70681702 -100.37904619 232.38469037 -101.0625 229.0625 C-101.50264854 226.89337016 -101.94210725 224.72410023 -102.38085938 222.5546875 C-104.96381873 209.81454773 -107.61206301 197.08800119 -110.26977539 184.36328125 C-111.38957712 178.99930734 -112.49312208 173.6321572 -113.59228516 168.26391602 C-114.56877625 163.51086192 -115.56005814 158.76092762 -116.55273438 154.01123047 C-117.12731394 151.25877268 -117.69533568 148.50504481 -118.25976562 145.75048828 C-119.01185127 142.08374826 -119.77776765 138.42011644 -120.55230713 134.75805664 C-120.84773216 133.35048827 -121.13864332 131.94196397 -121.42474365 130.5324707 C-121.82553783 128.5620714 -122.24448282 126.595391 -122.6640625 124.62890625 C-123.01525146 122.94196655 -123.01525146 122.94196655 -123.37353516 121.22094727 C-125.20793471 115.43556767 -128.39854597 111.46105397 -133.375 108.0625 C-137.44370233 106.05664632 -140.67236988 105.84737971 -145.18406677 105.938797 C-145.85633067 105.94923261 -146.52859456 105.95966822 -147.22123009 105.97042006 C-149.46733591 106.00718388 -151.71290374 106.05818501 -153.95874023 106.10864258 C-155.57218912 106.13700804 -157.18565994 106.16414784 -158.79914856 106.19015503 C-161.37670003 106.23190064 -163.95421149 106.27451436 -166.53168571 106.32080901 C-172.92992482 106.4352096 -179.3277894 106.51106222 -185.7268219 106.56364441 C-186.65689652 106.57132003 -187.58697115 106.57899565 -188.54522985 106.58690387 C-192.38175677 106.61779572 -196.21829263 106.64736875 -200.0548352 106.67624819 C-210.92862354 106.75962767 -221.79898192 106.88041443 -232.6706543 107.11499023 C-241.31474684 107.3012508 -249.95548738 107.40518891 -258.60164219 107.41422766 C-263.17311665 107.42205191 -267.7358258 107.47017311 -272.30508232 107.6183567 C-300.07342592 108.48280013 -300.07342592 108.48280013 -307.25847244 102.76977158 C-311.9378633 97.29181117 -314.80355121 91.28033275 -317.34649849 84.58592796 C-319.43989876 79.4497714 -322.48217296 76.50891352 -327.375 74.0625 C-330.61278157 73.04832611 -333.62685588 72.90778659 -337.01049805 72.85375977 C-338.14235031 72.83446915 -339.27420258 72.81517853 -340.44035339 72.79530334 C-345.61439956 72.7373571 -350.78836758 72.68799097 -355.96264648 72.6574707 C-358.68741254 72.63969573 -361.41113614 72.6049327 -364.13549805 72.55493164 C-368.0733579 72.48276795 -372.01072758 72.46045201 -375.94921875 72.44140625 C-377.15889816 72.41357559 -378.36857758 72.38574493 -379.61491394 72.35707092 C-389.08614433 72.37996887 -394.83364293 74.83014643 -400.9375 82.125 Z " fill="#606377" transform="translate(451.375,153.9375)"/>
<path d="M0 0 C0.74765625 0.59296875 1.4953125 1.1859375 2.265625 1.796875 C2.95140625 2.30734375 3.6371875 2.8178125 4.34375 3.34375 C13.65414473 10.74807966 20.1305653 21.78626505 24.265625 32.796875 C24.58402344 33.62058594 24.90242187 34.44429687 25.23046875 35.29296875 C30.61407469 51.59264204 27.20142266 69.58582669 20.265625 84.796875 C10.66083406 102.53059875 -3.75122402 113.46915801 -22.734375 119.796875 C-41.6371023 123.95840566 -60.53588681 120.97169202 -76.88671875 110.8046875 C-92.27961926 99.95153131 -102.4954529 84.60372722 -106.2890625 66.08984375 C-109.03554543 45.78032524 -104.41237667 28.12556293 -92.046875 11.671875 C-69.61137838 -15.08955858 -28.40073626 -21.43797511 0 0 Z " fill="#F4F4F3" transform="translate(445.734375,158.203125)"/>
<path d="M0 0 C0.95489319 -0.0159874 1.90978638 -0.03197479 2.89361572 -0.04844666 C3.91968933 -0.05380936 4.94576294 -0.05917206 6.00292969 -0.06469727 C7.59738922 -0.07823997 7.59738922 -0.07823997 9.22406006 -0.09205627 C11.47340072 -0.1065597 13.72278358 -0.11544574 15.97216797 -0.11914062 C19.39851869 -0.13101244 22.82305402 -0.18017873 26.24902344 -0.23071289 C28.43781676 -0.24018034 30.62662112 -0.24741383 32.81542969 -0.25219727 C34.34239471 -0.28149574 34.34239471 -0.28149574 35.90020752 -0.31138611 C43.67658953 -0.26253583 48.55295819 1.80720216 54.13574219 7.20092773 C57.85188999 12.24133816 61.26472038 17.45367564 64.61230469 22.74389648 C65.06202637 23.45457275 65.51174805 24.16524902 65.97509766 24.89746094 C69.17480469 30.05958045 69.17480469 30.05958045 69.17480469 32.30639648 C114.38480469 32.30639648 159.59480469 32.30639648 206.17480469 32.30639648 C207.82480469 36.59639648 209.47480469 40.88639648 211.17480469 45.30639648 C220.7029212 65.4969291 236.98866736 76.24748929 257.17480469 84.30639648 C256.61563071 92.96306244 255.67961084 101.47747814 254.35449219 110.04858398 C254.17510101 111.2356192 253.99570984 112.42265442 253.81088257 113.6456604 C253.22863043 117.49164899 252.63967278 121.33656915 252.04980469 125.18139648 C251.3310878 129.88516729 250.61478719 134.58930663 249.89891052 139.29351044 C249.69196473 140.65270299 249.48478031 142.01185924 249.27735901 143.37097931 C247.85911792 152.66701132 246.50089607 161.96993298 245.19824219 171.28295898 C244.74837626 174.457084 244.29744652 177.63105621 243.84625244 180.80499268 C243.56861939 182.78219837 243.29646728 184.76018261 243.0302124 186.73895264 C239.55880924 212.50274604 239.55880924 212.50274604 232.51171875 218.61694336 C231.35494629 219.45322266 231.35494629 219.45322266 230.17480469 220.30639648 C230.22701172 219.49041992 230.27921875 218.67444336 230.33300781 217.83374023 C230.75279843 205.58651541 228.25677418 194.22806712 225.67480469 182.30639648 C225.21602567 180.13426886 224.75877058 177.96181886 224.30297852 175.7890625 C223.37987024 171.39638869 222.44952726 167.00534949 221.51318359 162.61547852 C219.74650381 154.31503562 218.05209958 146.00014886 216.35977173 137.68429565 C215.55035558 133.71358334 214.73376981 129.74435 213.91699219 125.77514648 C213.61588479 124.31160495 213.314778 122.84806328 213.01367188 121.38452148 C212.87199585 120.69600098 212.73031982 120.00748047 212.58435059 119.2980957 C212.19886006 117.42338232 211.81424464 115.54848905 211.4296875 113.67358398 C210.22265468 107.79166657 209.00128657 101.9132632 207.75146484 96.0402832 C207.34890565 94.1317913 206.9532943 92.22182646 206.56298828 90.31079102 C205.94842841 87.30600995 205.31357049 84.30611292 204.67480469 81.30639648 C204.408573 79.97016235 204.408573 79.97016235 204.13696289 78.60693359 C202.53191607 71.24289139 199.63063554 64.49738064 193.36230469 59.93139648 C192.75773438 59.46991211 192.15316406 59.00842773 191.53027344 58.53295898 C183.40359443 54.30115599 174.59971649 55.15132721 165.7253418 55.3684082 C164.16233609 55.39843773 162.59930553 55.42719689 161.03625488 55.45478821 C158.54403018 55.49896524 156.05184873 55.5440029 153.55971038 55.59283328 C147.37839972 55.71334888 141.19748825 55.79358919 135.01527405 55.84988403 C134.11504247 55.85811058 133.21481089 55.86633713 132.28729957 55.87481296 C128.57681833 55.90790044 124.86632673 55.93959343 121.15582645 55.97046828 C110.6529667 56.05936426 100.15400375 56.18733493 89.65356445 56.43432617 C81.29360322 56.6307074 72.93740305 56.74095593 64.57507521 56.75221264 C60.15683515 56.76132534 55.74848089 56.81222583 51.33277702 56.96798325 C24.46074485 57.87785775 24.46074485 57.87785775 17.31923294 51.92685699 C13.26827885 47.0191945 10.58172067 41.86550179 8.05519104 36.05471802 C5.41736995 30.0173733 2.06544738 27.12487505 -3.82519531 24.30639648 C-8.76719012 22.48566156 -13.61762466 21.85456182 -18.82519531 21.30639648 C-19.48841476 14.93948976 -17.79181964 11.28093355 -13.82519531 6.30639648 C-9.52724083 2.32292647 -5.90038399 0.07496279 0 0 Z " fill="#BFC4D5" transform="translate(129.8251953125,198.693603515625)"/>
<path d="M0 0 C19.61582546 -0.5838905 41.91002108 4.78686763 57.26953125 17.7109375 C58.671875 19.09375 58.671875 19.09375 60.421875 21.15625 C58.90634096 24.63400179 56.8445294 27.1120484 54.296875 29.90625 C53.57242188 30.70546875 52.84796875 31.5046875 52.1015625 32.328125 C51.54726562 32.93140625 50.99296875 33.5346875 50.421875 34.15625 C49.75542969 33.70894531 49.08898437 33.26164062 48.40234375 32.80078125 C29.54632281 20.4322864 9.72273777 14.90898771 -12.6484375 19.33984375 C-21.85798984 21.906239 -29.99743154 25.95783968 -37.58984375 31.73828125 C-39.578125 33.15625 -39.578125 33.15625 -42.578125 34.15625 C-43.6872992 32.93160013 -44.79022463 31.70128955 -45.890625 30.46875 C-46.50550781 29.78425781 -47.12039062 29.09976562 -47.75390625 28.39453125 C-49.62833895 26.09463845 -51.11221189 23.73174657 -52.578125 21.15625 C-37.90399838 7.8930971 -19.67187883 0.85903401 0 0 Z " fill="#606377" transform="translate(194.578125,357.84375)"/>
<path d="M0 0 C7.45948427 3.39378063 10.99642352 8.56465609 14.87109375 15.5390625 C17.14961119 22.88095202 16.71512003 28.33461149 13.49609375 35.3515625 C10.89593575 40.17513351 8.03597828 43.28776016 3.76171875 46.6484375 C-0.24542222 50.08819568 -1.00200566 54.15455954 -2.00390625 59.1640625 C-6.95390625 59.1640625 -11.90390625 59.1640625 -17.00390625 59.1640625 C-17.7262498 50.20700244 -15.07065573 43.80493407 -9.50390625 36.7890625 C-7.14623974 34.31351266 -4.69731821 32.25893847 -2.00390625 30.1640625 C-0.38802246 26.93229493 -0.42939218 23.65790967 -1.00390625 20.1640625 C-2.99312511 17.1802342 -4.38893193 15.56129409 -7.94140625 14.6875 C-12.0071971 14.39488626 -13.62874997 14.87670875 -16.94140625 17.4140625 C-19.27726411 20.15799911 -19.27726411 20.15799911 -20.00390625 24.1640625 C-24.95390625 24.1640625 -29.90390625 24.1640625 -35.00390625 24.1640625 C-35.71743754 17.74228087 -34.42977949 13.92528979 -30.9296875 8.50390625 C-23.11608627 -0.98969849 -11.57102672 -3.22002564 0 0 Z " fill="#E18411" transform="translate(416.00390625,169.8359375)"/>
<path d="M0 0 C44.88 0 89.76 0 136 0 C137.65 4.29 139.3 8.58 141 13 C150.52811652 33.19053262 166.81386268 43.9410928 187 52 C186.67 56.29 186.34 60.58 186 65 C179.83560128 63.79129437 174.41628671 62.19972478 168.75 59.5 C168.02055176 59.15396729 167.29110352 58.80793457 166.53955078 58.45141602 C159.26412052 54.85820865 153.11659714 50.29287203 147 45 C146.32710937 44.42765625 145.65421875 43.8553125 144.9609375 43.265625 C134.2596989 33.39507616 125.40571684 18.07098801 122 4 C122 3.01 122 2.02 122 1 C81.74 1 41.48 1 0 1 C0 0.67 0 0.34 0 0 Z " fill="#AEB5C8" transform="translate(200,231)"/>
<path d="M0 0 C3.21524305 1.40844718 5.32183868 3.10344786 7.75 5.625 C8.67039063 6.57246094 8.67039063 6.57246094 9.609375 7.5390625 C10.06828125 8.02117187 10.5271875 8.50328125 11 9 C14.21524305 7.59155282 16.32183868 5.89655214 18.75 3.375 C19.36359375 2.74335938 19.9771875 2.11171875 20.609375 1.4609375 C21.06828125 0.97882813 21.5271875 0.49671875 22 0 C25.39859703 1.46966358 27.64963709 3.38037514 30.25 6 C30.95640625 6.70125 31.6628125 7.4025 32.390625 8.125 C34 10 34 10 34 12 C32.02819395 13.82358373 29.94381973 15.47002794 27.84765625 17.1484375 C25.94789834 18.87362999 25.94789834 18.87362999 24.96875 20.9296875 C24.79314613 23.23143245 24.79314613 23.23143245 26.87109375 25.359375 C27.71800781 26.14828125 28.56492188 26.9371875 29.4375 27.75 C30.28183594 28.54921875 31.12617188 29.3484375 31.99609375 30.171875 C32.65738281 30.77515625 33.31867188 31.3784375 34 32 C30.79239749 35.80635497 27.59253891 39.54563567 24 43 C20.78475695 41.59155282 18.67816132 39.89655214 16.25 37.375 C15.63640625 36.74335938 15.0228125 36.11171875 14.390625 35.4609375 C13.93171875 34.97882813 13.4728125 34.49671875 13 34 C9.78475695 35.40844718 7.67816132 37.10344786 5.25 39.625 C4.63640625 40.25664062 4.0228125 40.88828125 3.390625 41.5390625 C2.93171875 42.02117187 2.4728125 42.50328125 2 43 C-1.45201639 41.52278578 -3.64961936 39.56205999 -6.25 36.875 C-6.95640625 36.15054688 -7.6628125 35.42609375 -8.390625 34.6796875 C-8.92171875 34.12539063 -9.4528125 33.57109375 -10 33 C-9.06409496 31.8944811 -8.12620142 30.79064547 -7.1875 29.6875 C-6.40439453 28.76517578 -6.40439453 28.76517578 -5.60546875 27.82421875 C-4 26 -4 26 -2.23828125 24.51953125 C-0.78447383 23.07409328 -0.78447383 23.07409328 -1.05859375 21.046875 C-2.27316317 18.40606846 -3.82793585 17.09440215 -6.0625 15.25 C-6.79597656 14.63640625 -7.52945313 14.0228125 -8.28515625 13.390625 C-8.85105469 12.93171875 -9.41695312 12.4728125 -10 12 C-8.52278578 8.54798361 -6.56205999 6.35038064 -3.875 3.75 C-3.15054688 3.04359375 -2.42609375 2.3371875 -1.6796875 1.609375 C-1.12539062 1.07828125 -0.57109375 0.5471875 0 0 Z " fill="#606377" transform="translate(224,295)"/>
<path d="M0 0 C1.1055189 0.93590504 2.20935453 1.87379858 3.3125 2.8125 C3.92738281 3.33457031 4.54226562 3.85664063 5.17578125 4.39453125 C7 6 7 6 8.48046875 7.76171875 C9.92187589 9.21239662 9.92187589 9.21239662 11.921875 8.94140625 C14.62027893 7.71900898 16.2113962 6.07803399 18.25 3.9375 C18.95640625 3.20402344 19.6628125 2.47054688 20.390625 1.71484375 C20.92171875 1.14894531 21.4528125 0.58304687 22 0 C25.80635497 3.20760251 29.54563567 6.40746109 33 10 C31.59155282 13.21524305 29.89655214 15.32183868 27.375 17.75 C26.74335938 18.36359375 26.11171875 18.9771875 25.4609375 19.609375 C24.97882813 20.06828125 24.49671875 20.5271875 24 21 C25.40844718 24.21524305 27.10344786 26.32183868 29.625 28.75 C30.25664062 29.36359375 30.88828125 29.9771875 31.5390625 30.609375 C32.02117187 31.06828125 32.50328125 31.5271875 33 32 C31.52278578 35.45201639 29.56205999 37.64961936 26.875 40.25 C26.15054688 40.95640625 25.42609375 41.6628125 24.6796875 42.390625 C24.12539062 42.92171875 23.57109375 43.4528125 23 44 C22.55269531 43.61328125 22.10539062 43.2265625 21.64453125 42.828125 C18.1478974 39.81609925 14.62592537 36.85678969 11 34 C10.39671875 34.66128906 9.7934375 35.32257813 9.171875 36.00390625 C8.37265625 36.84824219 7.5734375 37.69257813 6.75 38.5625 C5.96109375 39.40941406 5.1721875 40.25632812 4.359375 41.12890625 C2 43 2 43 -0.03125 43.03125 C-2.58469178 41.69373288 -4.26407581 40.0227204 -6.25 37.9375 C-7.30960938 36.83728516 -7.30960938 36.83728516 -8.390625 35.71484375 C-8.92171875 35.14894531 -9.4528125 34.58304687 -10 34 C-8.59155282 30.78475695 -6.89655214 28.67816132 -4.375 26.25 C-3.42753906 25.32960938 -3.42753906 25.32960938 -2.4609375 24.390625 C-1.97882813 23.93171875 -1.49671875 23.4728125 -1 23 C-2.40844718 19.78475695 -4.10344786 17.67816132 -6.625 15.25 C-7.25664062 14.63640625 -7.88828125 14.0228125 -8.5390625 13.390625 C-9.02117187 12.93171875 -9.50328125 12.4728125 -10 12 C-8.52278578 8.54798361 -6.56205999 6.35038064 -3.875 3.75 C-3.15054688 3.04359375 -2.42609375 2.3371875 -1.6796875 1.609375 C-1.12539062 1.07828125 -0.57109375 0.5471875 0 0 Z " fill="#5F6276" transform="translate(148,295)"/>
<path d="M0 0 C2.62187494 1.04874998 3.79371361 1.64931313 5.25 4.125 C5.4975 4.74375 5.745 5.3625 6 6 C5.071875 7.051875 5.071875 7.051875 4.125 8.125 C-0.61473847 14.53758734 -0.74568017 21.26847403 0 29 C1.38423453 35.52567707 4.66167809 40.00206724 9 44.9375 C16.17418332 53.13041735 18.79613503 60.89920091 18.37109375 71.80859375 C17.26031826 81.36126295 13.05245463 87.83480192 7.0234375 95.17578125 C2.28062198 101.79557975 2.06884632 109.11746146 3 117 C4.5997412 121.56134387 6.56714767 125.56714767 10 129 C9.875 130.9375 9.875 130.9375 9 133 C7.69396214 134.03539504 6.36229507 135.03982818 5 136 C-3.84230459 125.53458745 -6.07671737 117.57489923 -5.19824219 103.90869141 C-4.35653845 95.80470149 1.30358726 89.47070105 5.9765625 83.11328125 C10.16805984 76.66420137 10.80957001 70.5174358 10 63 C8.54695258 57.1975623 5.41265801 53.17293408 1.5625 48.6875 C-5.98990276 39.7018855 -8.84817113 31.39548142 -8.42578125 19.62890625 C-7.55086152 12.17202159 -5.2956321 5.48476182 0 0 Z " fill="#5D6074" transform="translate(178,43)"/>
<path d="M0 0 C3.84075415 1.76127069 4.5506309 5.93790267 5.98046875 9.67578125 C9.43280678 20.40636924 8.13025902 30.91807134 3.46484375 41.1171875 C-0.51261982 48.53855245 -6.16135002 53.73535975 -12.72265625 58.8671875 C-17.7211398 63.01709128 -20.79230139 69.58677045 -21.97265625 75.9296875 C-22.60692358 83.60328242 -22.23404028 89.83593496 -18.84765625 96.80859375 C-17.97265625 98.9296875 -17.97265625 98.9296875 -17.97265625 102.9296875 C-20.97265625 104.9296875 -20.97265625 104.9296875 -23.97265625 104.9296875 C-24.78940421 103.18166604 -25.60089076 101.43118561 -26.41015625 99.6796875 C-26.86261719 98.70515625 -27.31507813 97.730625 -27.78125 96.7265625 C-31.45859618 88.09384162 -31.343378 76.79254894 -28.34765625 67.9296875 C-25.24587089 60.75614266 -21.03899323 55.80911953 -15.21166992 50.70800781 C-7.43675841 43.87507983 -1.6850847 36.89568521 0.02734375 26.3046875 C0.4389756 17.85861186 -2.26220303 10.38661775 -5.97265625 2.9296875 C-2.58808774 -0.09224867 -2.58808774 -0.09224867 0 0 Z " fill="#5D6074" transform="translate(266.97265625,103.0703125)"/>
<path d="M0 0 C2.31 0.33 4.62 0.66 7 1 C7.09796875 1.73605469 7.1959375 2.47210938 7.296875 3.23046875 C8.34850896 10.99137324 8.34850896 10.99137324 13 17 C16.54626324 18.92351556 20.20206124 20.48389375 24.08203125 21.59765625 C31.09593044 23.68660847 35.73595968 28.85415993 39.203125 35.203125 C40.56757971 39.9920935 40.35966286 44.92105693 40.390625 49.875 C40.55776523 55.72490809 41.51321111 59.24035219 45 64 C47.2701959 65.82887372 47.2701959 65.82887372 49.75 66.9375 C50.54921875 67.33839844 51.3484375 67.73929687 52.171875 68.15234375 C53.07679688 68.57193359 53.07679688 68.57193359 54 69 C53.67 71.31 53.34 73.62 53 76 C45.62594049 74.09378054 40.27715479 71.48243057 35.71484375 65.2421875 C32.49575899 59.35783902 32.49552327 53.12073164 32.50244141 46.55957031 C32.41800264 40.90829179 31.2616782 37.65364214 28 33 C23.97895575 30.12782553 20.17675352 28.71434134 15.5 27.1875 C8.5525757 24.7444497 4.7915156 21.00512294 1.0625 14.75 C-0.34876112 9.7690784 -0.25095785 5.13998856 0 0 Z " fill="#5E6174" transform="translate(75,106)"/>
<path d="M0 0 C3.13594153 1.26772104 4.56546548 2.52051364 6.8125 5 C8.65473845 9.65407608 8.78063124 14.07045828 8 19 C6.38735434 22.2380901 4.06259073 24.19389668 1.1875 26.375 C-3.80523661 27.80149617 -8.20565767 27.7174622 -12.8125 25.375 C-16.35256562 22.73730404 -17.61235454 21.16293638 -19 17 C-19.559524 11.77777599 -18.9224897 8.38373454 -16 4 C-11.09746912 -0.54380911 -6.37918006 -0.87473707 0 0 Z M-10.4375 8.625 C-12.28053342 10.95259558 -12.28053342 10.95259558 -12 14.0625 C-11.2016689 17.01538737 -11.2016689 17.01538737 -9.3125 18.9375 C-6.13778084 20.39615475 -4.30121799 20.00471852 -1 19 C1.31282587 15.53076119 1.42478586 14.07794425 1 10 C0 8 0 8 -2 7 C-5.65259739 6.45599613 -7.3433886 6.56225907 -10.4375 8.625 Z " fill="#5D6074" transform="translate(367,99)"/>
<path d="M0 0 C2.5549383 1.68088046 3.67561527 2.93064895 4.56640625 5.8671875 C5.17913892 9.2855908 5.1739006 11.51090456 4 14.8125 C1.23528027 17.8364122 -1.0633734 18.88462246 -5 20 C-8.69608684 19.44558697 -11.02473175 18.78650665 -13.9375 16.4375 C-15.59643743 12.63170237 -15.79104911 9.07136286 -15 5 C-10.55362386 -0.76827175 -6.97901168 -1.59170442 0 0 Z M-6 6 C-6.99 6.495 -6.99 6.495 -8 7 C-7.65555119 9.47266765 -7.65555119 9.47266765 -7 12 C-6.34 12.33 -5.68 12.66 -5 13 C-4.01 12.01 -3.02 11.02 -2 10 C-2.33 9.01 -2.66 8.02 -3 7 C-3.99 6.67 -4.98 6.34 -6 6 Z " fill="#5D6174" transform="translate(322,130)"/>
<path d="M0 0 C5.28 0 10.56 0 16 0 C16 5.28 16 10.56 16 16 C10.72 16 5.44 16 0 16 C0 10.72 0 5.44 0 0 Z " fill="#E2891B" transform="translate(398,241)"/>
<path d="M0 0 C3.47899158 1.39159663 4.48052501 2.63251488 6 6 C3.93132437 8.20319933 1.84718206 10.38672975 -0.25 12.5625 C-1.12978516 13.50512695 -1.12978516 13.50512695 -2.02734375 14.46679688 C-2.60097656 15.05654297 -3.17460938 15.64628906 -3.765625 16.25390625 C-4.28930664 16.80377197 -4.81298828 17.3536377 -5.35253906 17.92016602 C-7 19 -7 19 -9.07714844 18.79663086 C-11 18 -11 18 -13 16 C-12.66267052 12.81084932 -11.54202093 11.17753606 -9.27734375 8.984375 C-8.73916016 8.45585937 -8.20097656 7.92734375 -7.64648438 7.3828125 C-7.08251953 6.84398437 -6.51855469 6.30515625 -5.9375 5.75 C-5.36966797 5.19570313 -4.80183594 4.64140625 -4.21679688 4.0703125 C-2.81787531 2.70665786 -1.40980886 1.35239583 0 0 Z " fill="#5A6376" transform="translate(63,434)"/>
<path d="M0 0 C2.31 0 4.62 0 7 0 C7 6.6 7 13.2 7 20 C4.69 20 2.38 20 0 20 C0 13.4 0 6.8 0 0 Z " fill="#5D6074" transform="translate(79,447)"/>
<path d="M0 0 C6.6 0 13.2 0 20 0 C20 2.31 20 4.62 20 7 C13.4 7 6.8 7 0 7 C0 4.69 0 2.38 0 0 Z " fill="#5E6076" transform="translate(36,419)"/>
<path d="M0 0 C2.31 0 4.62 0 7 0 C7 2.31 7 4.62 7 7 C4.69 7 2.38 7 0 7 C0 4.69 0 2.38 0 0 Z " fill="#A9AFC4" transform="translate(416,380)"/>
<path d="M0 0 C2.31 0 4.62 0 7 0 C7 2.31 7 4.62 7 7 C4.69 7 2.38 7 0 7 C0 4.69 0 2.38 0 0 Z " fill="#A9AEC4" transform="translate(400,380)"/>
<path d="M0 0 C2.31 0 4.62 0 7 0 C7 2.31 7 4.62 7 7 C4.69 7 2.38 7 0 7 C0 4.69 0 2.38 0 0 Z " fill="#A9AEC4" transform="translate(384,380)"/>
<path d="M0 0 C2.31 0 4.62 0 7 0 C7 2.31 7 4.62 7 7 C4.69 7 2.38 7 0 7 C0 4.69 0 2.38 0 0 Z " fill="#A9AFC4" transform="translate(416,364)"/>
<path d="M0 0 C2.31 0 4.62 0 7 0 C7 2.31 7 4.62 7 7 C4.69 7 2.38 7 0 7 C0 4.69 0 2.38 0 0 Z " fill="#A9AFC4" transform="translate(416,348)"/>
<path d="M0 0 C2.31 0 4.62 0 7 0 C7 2.31 7 4.62 7 7 C4.69 7 2.38 7 0 7 C0 4.69 0 2.38 0 0 Z " fill="#A9AFC4" transform="translate(416,332)"/>
<path d="M0 0 C2.31 0 4.62 0 7 0 C7 2.31 7 4.62 7 7 C4.69 7 2.38 7 0 7 C0 4.69 0 2.38 0 0 Z " fill="#A9AFC4" transform="translate(416,316)"/>
<path d="M0 0 C2.31 0 4.62 0 7 0 C7 2.31 7 4.62 7 7 C4.69 7 2.38 7 0 7 C0 4.69 0 2.38 0 0 Z " fill="#A9AFC4" transform="translate(416,300)"/>
<path d="M0 0 C1.98 0 3.96 0 6 0 C6 1.98 6 3.96 6 6 C4.02 6 2.04 6 0 6 C0 4.02 0 2.04 0 0 Z " fill="#AAB0C5" transform="translate(361,380)"/>
<path d="M0 0 C1.98 0 3.96 0 6 0 C6 1.98 6 3.96 6 6 C4.02 6 2.04 6 0 6 C0 4.02 0 2.04 0 0 Z " fill="#ACB2C6" transform="translate(334,380)"/>
<path d="M0 0 C1.98 0 3.96 0 6 0 C6 1.98 6 3.96 6 6 C4.02 6 2.04 6 0 6 C0 4.02 0 2.04 0 0 Z " fill="#ACB2C6" transform="translate(318,380)"/>
<path d="M0 0 C1.98 0 3.96 0 6 0 C6 1.98 6 3.96 6 6 C4.02 6 2.04 6 0 6 C0 4.02 0 2.04 0 0 Z " fill="#ACB2C6" transform="translate(302,380)"/>
<path d="M0 0 C1.98 0 3.96 0 6 0 C6 1.98 6 3.96 6 6 C4.02 6 2.04 6 0 6 C0 4.02 0 2.04 0 0 Z " fill="#ACB2C6" transform="translate(286,380)"/>
</svg>
