<?xml version="1.0" encoding="UTF-8"?>
<svg version="1.1" xmlns="http://www.w3.org/2000/svg" width="512" height="512">
<path d="M0 0 C1.15257294 -0.00274933 2.30514587 -0.00549866 3.49264526 -0.0083313 C5.36783844 0.00245453 5.36783844 0.00245453 7.28091431 0.01345825 C8.62168367 0.0140229 9.96245365 0.01370476 11.30322266 0.01257324 C14.93090544 0.01200082 18.55845521 0.0237371 22.18610716 0.03772116 C25.98175089 0.05024705 29.77739787 0.05140048 33.57305908 0.05377197 C40.75524675 0.05998129 47.93737333 0.07638466 55.11953413 0.09647095 C64.82862382 0.12303327 74.53773028 0.13380703 84.24684715 0.14547539 C99.53640615 0.16426566 114.82583626 0.20411497 130.11538696 0.24050903 C130.11538696 21.36050903 130.11538696 42.48050903 130.11538696 64.24050903 C98.43538696 64.24050903 66.75538696 64.24050903 34.11538696 64.24050903 C34.11538696 159.28050903 34.11538696 254.32050903 34.11538696 352.24050903 C129.15538696 352.24050903 224.19538696 352.24050903 322.11538696 352.24050903 C322.11538696 310.33050903 322.11538696 268.42050903 322.11538696 225.24050903 C343.23538696 225.24050903 364.35538696 225.24050903 386.11538696 225.24050903 C386.2057442 246.8591728 386.27940213 268.47768324 386.32263565 290.096488 C386.3432449 300.13487962 386.3713342 310.17314544 386.41714478 320.2114563 C386.45706266 328.9627081 386.48283168 337.71386875 386.49174094 346.46520907 C386.4969473 351.09732731 386.50914997 355.72918486 386.53830719 360.36121941 C386.56555458 364.72540919 386.5738132 369.08923207 386.56781769 373.45349884 C386.56891377 375.05100819 386.57681208 376.64853043 386.59220886 378.24596596 C386.66900323 386.62803299 386.60348507 393.90166316 382.11538696 401.24050903 C381.73706852 401.8907904 381.35875008 402.54107176 380.96896744 403.21105862 C376.76877641 410.13801567 369.7280572 414.04863045 362.11538696 416.24050903 C359.02092522 416.4935087 359.02092522 416.4935087 355.65504742 416.49777794 C353.72261906 416.50745128 353.72261906 416.50745128 351.75115174 416.51732004 C350.32867372 416.51437801 348.90619609 416.51124259 347.48371887 416.50793457 C345.96702594 416.51167208 344.45033493 416.516274 342.93364698 416.52166522 C338.76877732 416.53389816 334.60398797 416.5336344 330.43910444 416.53127646 C325.94614065 416.53086837 321.45320264 416.54190669 316.96025085 416.5513916 C308.15884087 416.56800407 299.35745768 416.57350125 290.55603334 416.57461636 C283.40188224 416.57556669 276.24773999 416.57967625 269.09359169 416.58601761 C248.81041661 416.6036305 228.52726269 416.61285638 208.24407991 416.61135666 C206.60389375 416.61123679 206.60389375 416.61123679 204.93057251 416.6111145 C203.83578008 416.61103274 202.74098764 416.61095098 201.61301968 416.61086674 C183.86882962 416.61005377 166.12472444 416.62919406 148.38055893 416.65739124 C130.16112953 416.68611522 111.94174153 416.6999318 93.72228891 416.69820368 C83.49337799 416.69753963 73.26455604 416.70303885 63.03566551 416.72455978 C54.32684983 416.74276515 45.61816347 416.74712418 36.90933701 416.73354094 C32.46668022 416.72700811 28.02427157 416.72690542 23.58163834 416.74424744 C19.51217481 416.75996929 15.44315637 416.75712378 11.37370376 416.73967917 C9.90401335 416.73660732 8.43428981 416.74024874 6.96463849 416.75139932 C-1.207644 416.80928235 -7.76798026 416.47333465 -14.88461304 412.24050903 C-15.5366207 411.86224264 -16.18862836 411.48397624 -16.86039382 411.09424722 C-23.78163843 406.88405659 -27.69198867 399.85576945 -29.88461304 392.24050903 C-30.1376127 389.14604729 -30.1376127 389.14604729 -30.14188194 385.78016949 C-30.14833084 384.49188391 -30.15477973 383.20359834 -30.16142404 381.87627381 C-30.15848201 380.45379579 -30.15534659 379.03131816 -30.15203857 377.60884094 C-30.15577608 376.09214801 -30.16037801 374.575457 -30.16576922 373.05876905 C-30.17800216 368.89389939 -30.17773841 364.72911004 -30.17538047 360.56422651 C-30.17497238 356.07126272 -30.18601069 351.57832471 -30.19549561 347.08537292 C-30.21210807 338.28396294 -30.21760526 329.48257975 -30.21872036 320.68115541 C-30.2196707 313.52700431 -30.22378026 306.37286206 -30.23012161 299.21871376 C-30.2477345 278.93553868 -30.25696038 258.65238476 -30.25546066 238.36920198 C-30.25538075 237.27574454 -30.25530084 236.1822871 -30.25521851 235.05569458 C-30.25513674 233.96090215 -30.25505498 232.86610971 -30.25497074 231.73814175 C-30.25415778 213.99395169 -30.27329806 196.24984651 -30.30149524 178.505681 C-30.33021923 160.2862516 -30.34403581 142.0668636 -30.34230769 123.84741098 C-30.34164363 113.61850006 -30.34714286 103.38967811 -30.36866379 93.16078758 C-30.38686916 84.4519719 -30.39122819 75.74328554 -30.37764494 67.03445908 C-30.37111212 62.59180229 -30.37100942 58.14939364 -30.38835144 53.70676041 C-30.4040733 49.63729688 -30.40122778 45.56827844 -30.38378318 41.49882583 C-30.38071132 40.02913542 -30.38435274 38.55941188 -30.39550333 37.08976056 C-30.45338635 28.91747807 -30.11743866 22.35714181 -25.88461304 15.24050903 C-25.50634664 14.58850137 -25.12808024 13.93649372 -24.73835123 13.26472825 C-19.51855552 4.68376695 -9.8559879 -0.01821809 0 0 Z " fill="#607D8B" transform="translate(29.884613037109375,63.759490966796875)"/>
<path d="M0 0 C6.74297462 3.74591494 12.78581671 8.79618645 18.875 13.5 C25.69965725 18.73786415 32.55743138 23.91942858 39.5 29 C47.12765373 34.58627078 54.65645371 40.29276956 62.1640625 46.0390625 C67.89902727 50.42064326 73.67759563 54.73542958 79.5 59 C87.11721733 64.57916587 94.63784453 70.27562317 102.13330078 76.01708984 C108.92141399 81.2063656 115.77954509 86.29339182 122.69726562 91.30859375 C135.9015106 100.93937402 135.9015106 100.93937402 138 106 C138.3359375 108.8046875 138.3359375 108.8046875 138.375 111.875 C138.40335938 112.88304687 138.43171875 113.89109375 138.4609375 114.9296875 C137.33868084 122.40505814 131.6058052 126.25135285 125.9375 130.5 C125.14384033 131.10602051 124.35018066 131.71204102 123.5324707 132.33642578 C117.18215397 137.16543591 110.7580986 141.89624702 104.32006836 146.60742188 C98.32416975 150.99998587 92.40149124 155.48157758 86.5 160 C79.11367991 165.65365962 71.66805268 171.21470389 64.1640625 176.7109375 C58.22328253 181.07277263 52.35257477 185.52068204 46.5 190 C37.48629374 196.89600828 28.38633175 203.66473017 19.22802734 210.3671875 C16.99896625 212.00075758 14.77428594 213.640127 12.55078125 215.28125 C11.17970587 216.29169159 9.80861305 217.30210953 8.4375 218.3125 C7.81182129 218.77503174 7.18614258 219.23756348 6.54150391 219.71411133 C0.49797041 224.15778579 -3.52159836 224.73337917 -11 224 C-15.39138139 222.5976428 -18.70547136 219.92419869 -21.19055176 216.01727295 C-23.01232393 211.47712878 -22.47698614 206.41305772 -22.390625 201.6015625 C-22.38496521 200.41146576 -22.37930542 199.22136902 -22.37347412 197.99520874 C-22.35113451 194.20472514 -22.30093963 190.41519655 -22.25 186.625 C-22.22993201 184.05079493 -22.21168177 181.476575 -22.1953125 178.90234375 C-22.15127745 172.60123822 -22.08438805 166.30068735 -22 160 C-29.5563305 160.08568732 -37.11249252 160.18101654 -44.66855717 160.28752708 C-48.17996119 160.33674502 -51.69134525 160.38305683 -55.20288086 160.421875 C-68.75800792 160.57379718 -82.2973053 160.7492982 -95.8125 161.8984375 C-97.13599205 162.00942276 -97.13599205 162.00942276 -98.48622131 162.12265015 C-130.22116087 165.15073277 -159.10355782 179.05282988 -182 201 C-182.80824219 201.74507812 -183.61648437 202.49015625 -184.44921875 203.2578125 C-196.42238632 214.64829844 -204.44321977 227.99860167 -212.14160156 242.51977539 C-212.70073242 243.5586792 -213.25986328 244.59758301 -213.8359375 245.66796875 C-214.57142822 247.06438599 -214.57142822 247.06438599 -215.32177734 248.48901367 C-217.60369575 251.90326022 -220.33234719 254.16617359 -224 256 C-230.16874936 256.5241421 -235.84360582 256.80590999 -241 253 C-246.42739487 247.01615602 -246.7644591 242.34918705 -246.5625 234.4375 C-246.54735352 233.34066895 -246.53220703 232.24383789 -246.51660156 231.11376953 C-246.22294858 220.14914599 -244.44759492 209.66670607 -242 199 C-241.85046875 198.3076123 -241.7009375 197.61522461 -241.546875 196.90185547 C-232.28396985 154.37182682 -203.01770751 115.73558046 -167 92 C-166.42588379 91.6174707 -165.85176758 91.23494141 -165.26025391 90.84082031 C-143.94289176 76.81262071 -119.91773975 69.41906841 -95 65 C-93.65633362 64.74359489 -93.65633362 64.74359489 -92.28552246 64.48200989 C-88.86058023 63.97954611 -85.62920284 63.8799449 -82.16845703 63.88647461 C-81.18690895 63.88625557 -81.18690895 63.88625557 -80.18553162 63.8860321 C-78.04292374 63.88672353 -75.90040501 63.89447948 -73.7578125 63.90234375 C-72.26423185 63.90421067 -70.77065058 63.90563328 -69.27706909 63.90663147 C-65.36114793 63.91043506 -61.44526432 63.92024676 -57.52935791 63.93133545 C-53.52738961 63.94159612 -49.52541519 63.94613904 -45.5234375 63.95117188 C-37.6822745 63.9618711 -29.84114193 63.9789214 -22 64 C-22.00888245 63.33680756 -22.01776489 62.67361511 -22.0269165 61.99032593 C-22.11549956 55.07973866 -22.17578015 48.16931304 -22.21972656 41.25830078 C-22.23982563 38.68010912 -22.26710941 36.10196296 -22.30175781 33.52392578 C-22.35034847 29.81531539 -22.37298658 26.10730844 -22.390625 22.3984375 C-22.41127014 21.24822113 -22.43191528 20.09800476 -22.45318604 18.91293335 C-22.45494292 12.62874649 -22.31397717 8.72515616 -18 4 C-12.56032922 -0.2185202 -6.79820466 -1.62527772 0 0 Z " fill="#2196F3" transform="translate(374,32)"/>
</svg>
